<svg width="34" height="35" viewBox="0 0 34 35" fill="none" xmlns="http://www.w3.org/2000/svg">
<path d="M2.5625 32.7949C2.5625 33.5036 3.14902 34.0762 3.875 34.0762H15.6055V19.0215H2.5625V32.7949ZM18.3945 34.0762H30.125C30.851 34.0762 31.4375 33.5036 31.4375 32.7949V19.0215H18.3945V34.0762ZM32.0938 9.41211H26.0398C26.5977 8.55527 26.9258 7.53828 26.9258 6.44922C26.9258 3.40225 24.3869 0.923828 21.2656 0.923828C19.5676 0.923828 18.0377 1.66055 17 2.82168C15.9623 1.66055 14.4324 0.923828 12.7344 0.923828C9.61309 0.923828 7.07422 3.40225 7.07422 6.44922C7.07422 7.53828 7.39824 8.55527 7.96016 9.41211H1.90625C1.18027 9.41211 0.59375 9.98467 0.59375 10.6934V16.2988H15.6055V9.41211H18.3945V16.2988H33.4062V10.6934C33.4062 9.98467 32.8197 9.41211 32.0938 9.41211ZM15.6055 9.25195H12.7344C11.1512 9.25195 9.86328 7.99473 9.86328 6.44922C9.86328 4.90371 11.1512 3.64648 12.7344 3.64648C14.3176 3.64648 15.6055 4.90371 15.6055 6.44922V9.25195ZM21.2656 9.25195H18.3945V6.44922C18.3945 4.90371 19.6824 3.64648 21.2656 3.64648C22.8488 3.64648 24.1367 4.90371 24.1367 6.44922C24.1367 7.99473 22.8488 9.25195 21.2656 9.25195Z" fill="black"/>
</svg>
