<?xml version="1.0" standalone="no"?>
<!DOCTYPE svg PUBLIC "-//W3C//DTD SVG 20010904//EN"
 "http://www.w3.org/TR/2001/REC-SVG-20010904/DTD/svg10.dtd">
<svg version="1.0" xmlns="http://www.w3.org/2000/svg"
 width="512.000000pt" height="512.000000pt" viewBox="0 0 512.000000 512.000000"
 preserveAspectRatio="xMidYMid meet">

<g transform="translate(0.000000,512.000000) scale(0.100000,-0.100000)"
fill="#000000" stroke="none">
<path d="M2335 5060 c-1012 -5 -1008 -5 -1084 -45 -93 -48 -757 -693 -1048
-1018 l-150 -168 -7 -92 c-23 -336 -27 -704 -22 -2040 5 -1367 6 -1430 24
-1470 34 -76 109 -130 217 -156 38 -10 406 -13 1595 -12 1378 0 1551 2 1604
16 127 34 208 100 246 202 20 53 20 75 21 2276 0 1597 -3 2236 -11 2272 -34
154 -135 227 -325 237 -38 2 -515 1 -1060 -2z m1103 -65 c67 -20 113 -61 143
-127 l24 -53 3 -2254 c1 -1492 -1 -2266 -8 -2291 -17 -62 -51 -103 -111 -133
l-57 -28 -1048 3 c-1113 3 -1178 3 -1654 -3 -294 -4 -308 -3 -377 19 -90 28
-151 73 -181 134 l-23 46 -2 1529 c-1 840 2 1629 7 1753 l8 225 407 0 c272 0
424 4 461 12 183 39 255 104 298 270 15 59 17 121 17 485 l-1 417 56 4 c30 2
490 4 1021 5 845 2 972 0 1017 -13z m-2220 -846 c-13 -187 -61 -250 -213 -278
-62 -12 -770 -16 -799 -5 -14 5 -13 10 6 38 11 17 242 253 512 524 l491 492 5
-332 c3 -183 2 -380 -2 -439z"/>
<path d="M2568 4724 c-154 -37 -305 -157 -381 -301 -50 -96 -85 -250 -81 -353
11 -245 136 -451 335 -549 305 -150 653 -55 817 224 63 109 94 227 92 355 -3
193 -62 343 -185 465 -81 81 -161 127 -271 155 -91 24 -239 26 -326 4z m292
-113 c27 -8 27 -8 -195 -136 -55 -32 -115 -67 -134 -78 -60 -36 -29 -2 102
112 115 100 131 111 165 110 20 -1 48 -4 62 -8z m135 -60 c-16 -14 -105 -63
-105 -58 0 10 84 67 99 67 9 0 11 -3 6 -9z m119 -70 c14 -15 15 -21 4 -28 -7
-4 -60 -36 -118 -70 -75 -44 -108 -58 -117 -51 -13 11 0 22 137 126 63 47 70
49 94 23z m-694 -55 c0 -7 -222 -197 -226 -193 -2 1 2 20 8 41 12 40 23 48
143 119 57 34 75 42 75 33z m788 -57 c7 -12 12 -22 10 -24 -2 -1 -63 -36 -135
-78 -134 -76 -179 -87 -101 -24 90 71 193 147 203 147 6 0 16 -9 23 -21z
m-427 -109 c-13 -11 -28 -20 -35 -20 -6 0 0 9 14 20 33 26 52 25 21 0z m488
-45 c-14 -13 -302 -175 -306 -171 -3 2 62 54 143 116 l149 111 8 -26 c5 -14 7
-28 6 -30z m-765 -54 c-30 -27 -306 -233 -309 -230 -2 3 -5 17 -7 33 -3 27 4
33 157 121 88 51 162 91 164 89 3 -2 0 -8 -5 -13z m-269 -37 c-34 -26 -55 -36
-55 -25 0 11 48 40 65 40 6 0 1 -7 -10 -15z m1051 -69 c-4 -16 -40 -42 -123
-90 -65 -37 -137 -79 -160 -92 -24 -14 -43 -22 -43 -19 0 3 73 64 163 137 143
116 162 129 165 109 2 -12 1 -32 -2 -45z m-786 -67 c-1 -7 -55 -53 -121 -102
-112 -83 -121 -88 -137 -72 -12 12 -14 21 -7 31 10 15 242 154 258 155 4 0 7
-6 7 -12z m155 -73 c-31 -25 -45 -31 -45 -17 0 9 51 41 65 42 6 0 -3 -11 -20
-25z m194 -48 c-2 -2 -77 -63 -167 -135 -90 -73 -168 -132 -173 -132 -5 0 -26
7 -46 15 -26 11 -33 19 -26 26 18 18 407 239 412 234 2 -3 2 -6 0 -8z m366
-17 c-22 -25 -84 -64 -90 -58 -3 3 18 23 47 46 52 43 77 49 43 12z m-700 -28
c0 -11 -151 -132 -165 -132 -9 0 -45 39 -39 43 2 2 45 27 94 55 87 51 110 57
110 34z m394 -105 c-2 -2 -43 -36 -91 -76 -83 -69 -89 -72 -133 -69 l-47 3
134 76 c73 42 135 75 137 73 2 -2 2 -5 0 -7z"/>
<path d="M1078 2994 c-16 -8 -28 -19 -28 -24 0 -6 289 -10 795 -10 694 0 800
2 825 15 17 9 30 20 30 25 0 7 -286 10 -797 10 -688 -1 -802 -3 -825 -16z"/>
<path d="M643 2418 c-22 -29 -23 -38 -3 -58 20 -20 26 -20 1224 -20 730 0
1214 4 1229 9 28 11 41 39 31 65 -6 15 -105 16 -1239 16 -974 0 -1235 -3
-1242 -12z"/>
<path d="M642 1818 c-17 -17 -15 -55 4 -62 9 -3 561 -6 1228 -6 1093 0 1214 2
1234 16 15 10 22 24 20 37 l-3 22 -1235 3 c-953 1 -1239 -1 -1248 -10z"/>
<path d="M683 1207 c-100 -37 -96 -37 1153 -37 1173 0 1210 1 1252 20 23 10
42 21 42 25 0 3 -543 5 -1207 4 -898 0 -1216 -4 -1240 -12z"/>
<path d="M663 603 c-18 -9 -33 -20 -33 -25 0 -4 543 -8 1208 -8 1171 0 1208 1
1250 20 23 10 42 21 42 25 0 3 -548 5 -1217 4 -1101 0 -1221 -2 -1250 -16z"/>
<path d="M4357 5060 c-26 -5 -86 -27 -134 -50 -101 -49 -177 -119 -218 -200
-48 -95 -55 -158 -53 -486 1 -165 -4 -420 -10 -569 -18 -406 2 -604 69 -688
l30 -37 -2 -938 c-2 -918 -2 -938 18 -982 24 -55 71 -97 118 -106 l35 -6 -2
-213 c-3 -202 -2 -215 18 -242 11 -15 34 -35 51 -43 l31 -15 4 -146 c4 -140 5
-147 35 -200 39 -70 87 -99 163 -99 157 1 222 97 224 330 l1 126 30 20 c75 49
93 123 76 315 -14 156 -10 182 34 198 18 6 49 29 69 51 69 76 67 41 66 1061 0
825 1 918 16 930 50 41 76 155 76 333 1 689 -4 1116 -13 1196 -30 263 -138
407 -340 455 -69 16 -306 19 -392 5z m103 -64 c0 -6 -157 -96 -167 -96 -12 0
70 81 92 90 21 9 75 13 75 6z m217 -11 c2 -1 -42 -27 -98 -59 -55 -32 -102
-57 -104 -54 -2 2 30 32 73 66 62 50 81 60 102 55 14 -3 26 -7 27 -8z m124
-55 c10 -6 19 -14 19 -19 0 -5 -53 -39 -117 -76 -189 -108 -209 -119 -193
-102 24 25 254 206 263 207 5 0 17 -5 28 -10z m134 -191 c4 -11 5 -22 3 -24
-10 -10 -284 -165 -292 -165 -10 0 264 208 276 209 4 1 10 -8 13 -20z m-815
-48 c-19 -16 -37 -27 -40 -24 -7 7 48 53 63 53 7 0 -4 -14 -23 -29z m170 -26
c0 -3 -48 -43 -107 -90 -78 -61 -109 -81 -111 -69 -7 29 7 43 110 103 109 64
108 64 108 56z m678 -67 c-2 -16 -26 -35 -83 -68 -153 -88 -200 -113 -189
-101 23 25 250 190 262 190 8 1 12 -8 10 -21z m10 -172 c-37 -26 -268 -152
-268 -146 0 5 60 52 133 105 129 95 132 97 135 70 2 -15 2 -28 0 -29z m-643
-5 c-6 -5 -66 -50 -135 -101 -113 -83 -125 -90 -128 -70 -5 29 -8 26 133 109
109 64 155 86 130 62z m642 -114 c-5 -14 -147 -100 -154 -93 -5 5 151 115 156
110 2 -2 1 -9 -2 -17z m-647 -41 c0 -6 -246 -186 -254 -186 -3 0 -6 9 -6 20 0
22 10 29 149 112 92 54 111 63 111 54z m640 -86 c0 -11 -89 -65 -96 -58 -4 4
84 67 94 68 1 0 2 -4 2 -10z m-670 -89 c0 -5 -51 -46 -112 -91 -103 -74 -113
-80 -116 -60 -5 29 1 34 115 101 103 60 113 65 113 50z m651 -61 c-31 -23
-141 -82 -141 -76 0 12 155 114 159 104 2 -6 -6 -18 -18 -28z m17 -131 c-3
-28 -16 -38 -165 -124 -90 -52 -163 -91 -163 -87 1 9 312 241 323 242 5 0 7
-14 5 -31z m-808 -54 c-77 -56 -95 -64 -88 -42 5 13 136 97 152 97 6 0 -23
-25 -64 -55z m820 -99 c0 -13 -7 -29 -15 -36 -29 -24 -300 -178 -305 -173 -3
2 2 8 10 13 8 5 78 56 155 114 77 58 143 105 148 106 4 0 7 -11 7 -24z m-848
-42 c-30 -20 -56 -33 -60 -30 -7 8 -5 10 48 40 66 38 73 32 12 -10z m104 -53
c-10 -15 -157 -113 -163 -108 -10 11 10 28 85 72 83 48 86 49 78 36z m9 -156
c-165 -122 -170 -125 -173 -99 -2 15 2 32 10 39 18 18 310 185 322 185 6 0
-66 -56 -159 -125z m735 71 c0 -33 -4 -37 -92 -89 -164 -96 -194 -111 -176
-92 25 27 252 214 261 215 4 0 7 -15 7 -34z m-585 -125 c-6 -5 -81 -61 -167
-125 -156 -115 -158 -116 -158 -86 0 34 6 39 195 149 111 64 154 85 130 62z
m585 -40 c0 -12 -16 -28 -45 -44 -25 -14 -45 -23 -45 -20 0 5 81 82 88 83 1 0
2 -9 2 -19z m-385 -9 c-156 -135 -308 -243 -390 -278 l-37 -15 7 33 c4 18 8
34 9 35 6 7 403 233 411 233 6 0 6 -3 0 -8z m65 -146 c0 -2 -17 -18 -38 -34
-24 -20 -43 -28 -51 -23 -9 6 -1 16 30 35 42 25 59 31 59 22z m300 -116 c0 -5
-6 -10 -14 -10 -8 0 -23 -3 -33 -6 -10 -3 -7 2 7 10 30 18 40 20 40 6z m-212
-96 c24 -7 31 -3 -205 -140 -24 -14 -43 -23 -43 -21 0 12 194 167 209 167 9 0
26 -3 39 -6z m138 -109 c-4 -12 -92 -67 -241 -150 -66 -37 -46 -18 110 105
115 90 130 99 133 80 2 -12 1 -27 -2 -35z m-536 -68 c-13 -12 -123 -105 -173
-146 -17 -15 -18 -14 -15 18 3 30 11 38 93 86 89 53 123 68 95 42z m540 -87
c0 -27 -9 -34 -92 -83 -147 -86 -194 -111 -185 -101 16 17 262 212 270 213 4
1 7 -12 7 -29z m-460 -44 c-30 -28 -259 -206 -265 -206 -3 0 -5 14 -3 32 3 30
12 38 138 110 140 80 154 88 130 64z m457 -140 c-4 -10 -140 -92 -222 -134
-21 -11 6 11 111 93 77 59 110 80 112 69 2 -8 1 -21 -1 -28z m-448 -31 c-3 -2
-65 -52 -139 -110 -117 -91 -135 -102 -138 -84 -2 11 -1 26 1 34 3 7 66 47
139 89 123 70 149 84 137 71z m451 -105 c0 -12 -15 -29 -37 -43 -53 -33 -179
-102 -172 -94 7 8 203 156 207 157 1 0 2 -9 2 -20z m-510 -104 c0 -3 -187
-148 -207 -160 -9 -5 -13 0 -13 16 0 20 19 35 108 86 111 64 112 64 112 58z
m510 -51 c0 -15 -31 -37 -135 -95 -73 -40 -64 -29 40 49 86 65 95 69 95 46z
m-540 -128 c-8 -8 -54 -44 -102 -80 -79 -60 -88 -64 -88 -44 0 18 19 34 98 79
102 60 115 66 92 45z m540 -22 c0 -15 -31 -37 -135 -95 -73 -40 -64 -29 40 49
86 65 95 69 95 46z m-545 -133 c-6 -5 -49 -39 -97 -76 -79 -60 -88 -65 -88
-44 0 18 19 33 93 75 89 51 111 62 92 45z m545 0 c0 -5 -12 -15 -27 -23 -47
-23 -49 -22 -14 5 38 29 41 30 41 18z m0 -155 c0 -32 -5 -36 -142 -115 -77
-45 -143 -81 -145 -79 -3 3 277 227 284 227 2 0 3 -15 3 -33z m-545 5 c-24
-21 -174 -132 -179 -132 -3 0 -6 8 -6 18 0 11 31 35 93 69 90 52 110 61 92 45z
m542 -186 c-3 -7 -32 -28 -64 -46 -32 -18 -78 -44 -103 -58 -61 -35 -42 -16
70 68 86 64 111 74 97 36z m-687 -51 c-18 -14 -36 -22 -39 -19 -3 4 -1 9 5 11
6 2 20 10 30 18 10 8 23 15 28 15 6 0 -5 -11 -24 -25z m240 21 c0 -3 -63 -55
-141 -116 l-140 -111 3 37 c3 37 5 39 138 116 140 81 140 81 140 74z m450
-115 c0 -10 -6 -23 -12 -29 -20 -16 -190 -113 -194 -110 -3 4 189 157 199 157
4 1 7 -7 7 -18z m-520 -105 c0 -8 -199 -156 -209 -156 -6 0 -11 7 -11 15 0 15
28 35 145 103 75 44 75 44 75 38z m520 -41 c0 -2 -10 -9 -22 -15 -22 -11 -22
-10 -4 4 21 17 26 19 26 11z m-445 -74 c-42 -40 -251 -198 -257 -193 -3 4 -8
15 -10 25 -2 15 27 36 132 98 133 77 153 88 135 70z m434 -112 c-25 -16 -32
-9 -13 12 12 13 20 16 22 9 3 -7 -2 -16 -9 -21z m-155 -34 c-29 -38 -34 -41
-52 -23 -10 10 -4 17 25 35 52 32 58 29 27 -12z m-314 -45 c-46 -41 -60 -47
-60 -30 0 9 88 70 100 70 3 -1 -15 -18 -40 -40z m431 -50 c-13 -11 -28 -20
-35 -20 -6 1 0 10 13 20 13 11 28 20 35 20 6 -1 0 -10 -13 -20z m-207 -79 c6
-9 -92 -66 -100 -58 -7 7 65 67 81 67 7 0 16 -4 19 -9z m-284 -5 c0 -3 -4 -8
-10 -11 -5 -3 -10 -1 -10 4 0 6 5 11 10 11 6 0 10 -2 10 -4z m40 -79 c0 -2
-13 -16 -30 -32 -23 -22 -30 -25 -30 -12 0 9 12 23 28 31 29 17 32 18 32 13z
m330 -36 c0 -26 -9 -34 -71 -70 -40 -23 -74 -40 -76 -38 -3 4 137 137 145 137
1 0 2 -13 2 -29z m-305 -146 c-44 -41 -83 -75 -87 -75 -5 0 -8 13 -8 29 0 26
9 34 78 75 42 25 82 45 87 45 6 0 -26 -33 -70 -74z m196 -64 c-29 -40 -175
-125 -179 -104 -2 8 1 20 7 27 15 15 185 114 190 110 2 -2 -6 -16 -18 -33z
m109 -1 c0 -5 -5 -10 -11 -10 -5 0 -7 5 -4 10 3 6 8 10 11 10 2 0 4 -4 4 -10z
m-85 -267 c-26 -18 -32 -7 -9 18 12 14 20 17 23 8 2 -7 -4 -18 -14 -26z m-194
-61 c-5 -9 -19 -26 -30 -36 -21 -19 -21 -19 -21 0 0 10 12 26 28 36 35 21 34
21 23 0z"/>
</g>
</svg>
